<svg xmlns="http://www.w3.org/2000/svg" xmlns:xlink="http://www.w3.org/1999/xlink" width="1080" zoomAndPan="magnify" viewBox="0 0 810 809.999993" height="1080" preserveAspectRatio="xMidYMid meet" version="1.0"><defs><clipPath id="f5b2e19b4c"><path d="M 22.59375 22.59375 L 787.394531 22.59375 L 787.394531 787.394531 L 22.59375 787.394531 Z M 22.59375 22.59375 " clip-rule="nonzero"/></clipPath><clipPath id="859a32eee6"><path d="M 404.996094 22.59375 C 193.800781 22.59375 22.59375 193.800781 22.59375 404.996094 C 22.59375 616.1875 193.800781 787.394531 404.996094 787.394531 C 616.1875 787.394531 787.394531 616.1875 787.394531 404.996094 C 787.394531 193.800781 616.1875 22.59375 404.996094 22.59375 Z M 404.996094 22.59375 " clip-rule="nonzero"/></clipPath></defs><g clip-path="url(#f5b2e19b4c)"><g clip-path="url(#859a32eee6)"><path stroke-linecap="butt" transform="matrix(0.75, 0, 0, 0.75, 22.594144, 22.594161)" fill="none" stroke-linejoin="miter" d="M 509.869292 -0.000547711 C 228.275527 -0.000547711 -0.000525711 228.275505 -0.000525711 509.86927 C -0.000525711 791.457825 228.275527 1019.733879 509.869292 1019.733879 C 791.457847 1019.733879 1019.733901 791.457825 1019.733901 509.86927 C 1019.733901 228.275505 791.457847 -0.000547711 509.869292 -0.000547711 Z M 509.869292 -0.000547711 " stroke="#000000" stroke-width="60" stroke-opacity="1" stroke-miterlimit="4"/></g></g><path fill="#212121" d="M 210.550781 599 C 95.621094 484.089844 105.96875 287.417969 233.667969 159.722656 L 649.828125 575.886719 C 522.132812 703.582031 325.460938 713.914062 210.550781 599 Z M 210.550781 599 " fill-opacity="1" fill-rule="nonzero"/><path fill="#000000" d="M 233.667969 159.722656 C 169.828125 223.5625 211.21875 368.492188 326.132812 483.417969 C 441.078125 598.332031 585.988281 639.726562 649.8125 575.886719 C 713.652344 512.0625 672.273438 367.132812 557.328125 252.207031 C 442.433594 137.277344 297.507812 95.898438 233.667969 159.722656 Z M 233.667969 159.722656 " fill-opacity="1" fill-rule="nonzero"/><path fill="#f5f8fa" d="M 636.996094 501.730469 C 640.738281 505.472656 646.148438 507.222656 651.496094 506.242188 C 657.824219 505.082031 662.875 500.324219 664.410156 494.0625 C 665.507812 489.664062 690.160156 385.019531 615.152344 310.011719 C 596.84375 291.703125 569.65625 248.316406 561.921875 235.726562 C 555.382812 228.941406 549.941406 231.3125 537.433594 218.804688 C 531.710938 213.085938 514.464844 182.054688 464.863281 229.089844 C 459.140625 234.515625 458.488281 243.441406 462.96875 249.933594 L 635.082031 499.457031 C 635.671875 500.273438 636.308594 501.042969 636.996094 501.730469 Z M 636.996094 501.730469 " fill-opacity="1" fill-rule="nonzero"/><path fill="#000000" d="M 517.324219 229.449219 C 528.882812 241.007812 541.160156 252.613281 541.160156 252.613281 C 541.160156 252.613281 580.460938 298.453125 603.59375 321.570312 C 672.945312 390.9375 648.554688 490.171875 648.554688 490.171875 L 458.0625 233.878906 C 458.0625 233.878906 503.707031 216.84375 517.324219 229.449219 Z M 538.105469 207.3125 C 508.136719 183.804688 460.007812 202.164062 448.1875 213.785156 C 437.023438 224.953125 440.554688 246.222656 449.511719 259.203125 L 621.628906 508.726562 C 622.773438 510.378906 624.03125 511.882812 625.421875 513.269531 C 632.941406 520.792969 643.746094 524.273438 654.4375 522.3125 C 667.09375 519.988281 677.210938 510.460938 680.285156 497.96875 C 681.460938 493.179688 708.160156 379.886719 626.710938 298.4375 C 612.128906 283.855469 595.027344 270.023438 579.15625 250.816406 C 573.777344 243.902344 559.765625 227.257812 545.25 212.757812 Z M 538.105469 207.3125 " fill-opacity="1" fill-rule="nonzero"/><path fill="#f5f8fa" d="M 256.78125 182.839844 C 205.710938 233.910156 247.105469 358.125 349.265625 460.269531 C 451.394531 562.414062 575.625 603.824219 626.695312 552.753906 C 677.765625 501.679688 636.355469 377.449219 534.214844 275.304688 C 432.070312 173.179688 307.855469 131.769531 256.78125 182.839844 Z M 256.78125 182.839844 " fill-opacity="1" fill-rule="nonzero"/><path fill="#99aab5" d="M 290.738281 218.25 C 252.84375 256.144531 289.382812 354.167969 372.382812 437.167969 C 455.398438 520.1875 553.390625 556.707031 591.300781 518.8125 C 629.195312 480.917969 592.660156 382.910156 509.65625 299.894531 C 426.675781 216.875 328.648438 180.339844 290.738281 218.25 Z M 290.738281 218.25 " fill-opacity="1" fill-rule="nonzero"/><path fill="#99aab5" d="M 450.753906 268.308594 L 469.980469 262.832031 C 479.167969 257.730469 492.117188 257.386719 500.976562 265.5625 L 520.773438 286.375 C 530.140625 297.652344 552.148438 321.308594 569.738281 338.898438 C 631.976562 401.136719 607.648438 481.488281 606.570312 484.890625 C 605.640625 487.867188 603.089844 490.039062 600.015625 490.515625 C 597.414062 490.90625 594.816406 490.039062 593 488.210938 C 592.660156 487.867188 592.347656 487.507812 592.054688 487.097656 L 448.238281 279.980469 C 446.945312 278.117188 446.472656 275.828125 446.960938 273.605469 C 447.4375 271.398438 448.808594 269.484375 450.753906 268.308594 Z M 450.753906 268.308594 " fill-opacity="1" fill-rule="nonzero"/><path fill="#f5f8fa" d="M 508.972656 531.792969 C 508.972656 531.792969 456.511719 497.707031 447.320312 470.144531 C 437.054688 439.328125 371.105469 433.328125 360.839844 402.496094 C 350.589844 371.679688 333.441406 324.59375 324.007812 305.746094 C 314.589844 286.898438 303.441406 305.730469 293.175781 274.914062 C 282.90625 244.0625 262.359375 223.515625 262.359375 223.515625 C 262.359375 223.515625 262.359375 367.394531 293.175781 398.210938 C 324.007812 429.042969 447.320312 552.359375 457.605469 542.058594 C 467.871094 531.792969 508.972656 531.792969 508.972656 531.792969 Z M 508.972656 531.792969 " fill-opacity="1" fill-rule="nonzero"/><path fill="#000000" d="M 493.898438 559.160156 C 493.898438 559.160156 432.917969 517.683594 423.339844 488.960938 C 412.632812 456.851562 336.855469 446.144531 326.164062 414.035156 C 315.457031 381.929688 300.074219 324.351562 294.890625 317.714844 C 279.914062 298.421875 273.492188 317.695312 262.78125 285.605469 C 252.074219 253.480469 230.675781 232.082031 230.675781 232.082031 C 230.675781 232.082031 230.675781 381.929688 262.78125 414.035156 C 294.890625 446.160156 423.324219 574.59375 434.046875 563.886719 C 444.753906 553.195312 493.898438 559.160156 493.898438 559.160156 Z M 493.898438 559.160156 " fill-opacity="1" fill-rule="nonzero"/><path fill="#212121" d="M 476.421875 587.441406 C 476.421875 587.441406 417.40625 549.105469 407.074219 518.09375 C 395.515625 483.417969 303.015625 460.285156 291.457031 425.613281 C 279.898438 390.921875 279.898438 344.6875 268.339844 333.128906 C 256.78125 321.554688 245.226562 333.128906 233.667969 298.4375 C 222.109375 263.765625 198.992188 240.648438 198.992188 240.648438 C 198.992188 240.648438 198.992188 402.496094 233.667969 437.167969 C 268.339844 471.84375 407.054688 610.558594 418.613281 599 C 430.1875 587.441406 476.421875 587.441406 476.421875 587.441406 Z M 476.421875 587.441406 " fill-opacity="1" fill-rule="nonzero"/><path fill="#99aab5" d="M 297.277344 642.914062 C 298.765625 638.253906 310.945312 641.914062 315.472656 642.929688 C 428.832031 667.875 506.09375 620.285156 506.945312 619.894531 C 511.390625 617.671875 516.410156 619.339844 518.144531 623.554688 C 519.875 627.773438 517.71875 632.988281 513.304688 635.195312 C 509.625 637.027344 434.703125 676.882812 315.082031 650.546875 C 313.59375 650.203125 303.292969 648.40625 302.3125 647.425781 C 300.300781 645.414062 296.265625 646.050781 297.277344 642.914062 Z M 160.539062 479.953125 C 162.421875 481.816406 162.304688 483.417969 165.28125 482.652344 C 169.988281 481.457031 170.167969 474.199219 169.449219 469.605469 C 161.40625 417.421875 175.335938 363.277344 199.546875 300.367188 C 201.296875 295.773438 199.105469 290.96875 194.742188 289.707031 C 190.292969 288.402344 185.277344 291.082031 183.511719 295.660156 C 158.089844 361.609375 149.882812 420.496094 158.398438 475.703125 C 158.675781 477.402344 159.445312 478.839844 160.539062 479.953125 Z M 329.859375 629.996094 C 331.003906 631.160156 332.589844 631.925781 334.421875 632.15625 C 396.039062 639.121094 447.109375 613.566406 449.25 612.472656 C 453.648438 610.234375 455.789062 605.019531 454.007812 600.800781 C 452.242188 596.566406 447.191406 594.980469 442.761719 597.234375 C 442.285156 597.480469 397.917969 627.367188 341.710938 620.988281 C 337.054688 620.464844 328.207031 620.726562 327.179688 625.484375 C 326.589844 628.378906 328.046875 628.199219 329.859375 629.996094 Z M 329.859375 629.996094 " fill-opacity="1" fill-rule="nonzero"/></svg>