<svg xmlns="http://www.w3.org/2000/svg" xmlns:xlink="http://www.w3.org/1999/xlink" width="1080" zoomAndPan="magnify" viewBox="0 0 810 809.999993" height="1080" preserveAspectRatio="xMidYMid meet" version="1.0"><defs><clipPath id="f2ea759a4f"><path d="M 22.59375 22.59375 L 787.394531 22.59375 L 787.394531 787.394531 L 22.59375 787.394531 Z M 22.59375 22.59375 " clip-rule="nonzero"/></clipPath><clipPath id="9f4fc88c62"><path d="M 404.996094 22.59375 C 193.800781 22.59375 22.59375 193.800781 22.59375 404.996094 C 22.59375 616.1875 193.800781 787.394531 404.996094 787.394531 C 616.1875 787.394531 787.394531 616.1875 787.394531 404.996094 C 787.394531 193.800781 616.1875 22.59375 404.996094 22.59375 Z M 404.996094 22.59375 " clip-rule="nonzero"/></clipPath></defs><g clip-path="url(#f2ea759a4f)"><g clip-path="url(#9f4fc88c62)"><path stroke-linecap="butt" transform="matrix(0.75, 0, 0, 0.75, 22.594144, 22.594238)" fill="none" stroke-linejoin="miter" d="M 509.869292 -0.000650111 C 228.275527 -0.000650111 -0.000525711 228.275403 -0.000525711 509.869167 C -0.000525711 791.457723 228.275527 1019.733776 509.869292 1019.733776 C 791.457847 1019.733776 1019.733901 791.457723 1019.733901 509.869167 C 1019.733901 228.275403 791.457847 -0.000650111 509.869292 -0.000650111 Z M 509.869292 -0.000650111 " stroke="#ff0000" stroke-width="60" stroke-opacity="1" stroke-miterlimit="4"/></g></g><path fill="#ff0000" d="M 426.117188 398.671875 C 444.078125 434.078125 454.535156 471.050781 457.660156 506.148438 C 458.167969 504.859375 458.667969 503.566406 459.167969 502.246094 C 480.570312 445.402344 473.484375 410.773438 466.03125 374.105469 C 458.152344 335.519531 449.242188 291.761719 474.613281 224.375 C 490.753906 181.515625 511 154.972656 531.667969 135.222656 C 460.238281 134.851562 382.316406 198.296875 339.980469 295.335938 C 373.824219 319.902344 404.285156 355.636719 426.117188 398.671875 " fill-opacity="1" fill-rule="nonzero"/><path fill="#ff0000" d="M 579.324219 145.949219 C 553.742188 165.9375 529.90625 188.535156 511.226562 238.15625 C 489.824219 295 496.878906 329.621094 504.359375 366.296875 C 512.207031 404.894531 521.148438 448.640625 495.78125 516.027344 C 481.878906 552.949219 464.917969 577.730469 447.277344 596.519531 C 446.210938 599.421875 445.050781 602.273438 443.832031 605.074219 C 518.0625 602.332031 598.214844 532.023438 637.546875 427.5625 C 683.3125 306.011719 657.03125 182.703125 579.324219 145.949219 " fill-opacity="1" fill-rule="nonzero"/><path fill="#ff0000" d="M 351.34375 557.460938 C 343.046875 541.101562 334.429688 528.792969 325.535156 518.972656 C 310.519531 502.390625 294.722656 492.914062 278.359375 483.097656 C 250.9375 466.664062 219.84375 448.011719 193.390625 395.867188 C 176.566406 362.707031 171.769531 336.027344 171.277344 312.820312 C 129.566406 357.914062 126.710938 446.601562 168.65625 529.277344 C 216.371094 623.34375 304.582031 675.210938 369.226562 648.832031 C 371.050781 625.457031 370.863281 601.753906 357.105469 569.785156 C 355.390625 565.804688 353.503906 561.710938 351.34375 557.460938 " fill-opacity="1" fill-rule="nonzero"/><path fill="#ff0000" d="M 330.785156 318.597656 C 289.113281 286.472656 242.285156 274.453125 203.828125 290.160156 C 201.773438 316.4375 202.242188 343.109375 221.71875 381.5 C 244.027344 425.480469 268.636719 440.238281 294.703125 455.859375 C 300.503906 459.34375 306.476562 462.933594 312.535156 466.910156 C 335.082031 481.714844 358.820312 501.988281 379.671875 543.089844 C 388.34375 560.183594 393.796875 575.546875 397.136719 589.605469 C 397.796875 592.394531 398.382812 595.140625 398.882812 597.832031 C 400.761719 607.898438 401.589844 617.289062 401.777344 626.167969 C 408.007812 619.433594 413.355469 611.707031 417.832031 603.191406 C 425.605469 588.40625 430.71875 571.199219 433.046875 552.402344 C 438.34375 509.566406 429.214844 458.574219 404.410156 409.679688 C 385.097656 371.605469 359.132812 340.453125 330.785156 318.597656 " fill-opacity="1" fill-rule="nonzero"/></svg>